<svg width="112" height="126" viewBox="0 0 112 126" fill="none" xmlns="http://www.w3.org/2000/svg">
<path d="M59.967 100.73C61.327 101.366 62.8608 102.422 62.7382 103.946C62.6217 105.413 61.0506 106.219 59.6876 106.682C50.079 109.926 39.7643 110.28 29.9655 107.702C28.6738 107.358 27.3589 106.946 26.3187 106.092C25.2786 105.238 24.5598 103.84 24.8486 102.507C25.2227 100.782 26.4336 101.105 27.5809 100.645C28.6475 100.217 29.8196 99.4569 31.0647 99.0545C34.2246 98.0331 37.4946 97.4113 40.8018 97.2028C47.3423 96.786 53.9885 97.9616 59.967 100.73Z" fill="#FFB300"/>
<path d="M39.703 100.606C39.044 100.783 38.3893 100.976 37.7407 101.183C37.092 101.389 36.4463 101.609 35.8215 101.874C35.512 102.009 35.2011 102.145 34.911 102.308C34.7673 102.387 34.6277 102.475 34.4929 102.571C34.3687 102.657 34.2561 102.762 34.1582 102.881C33.7818 103.232 34.5688 103.621 35.1475 103.821C35.782 104.029 36.4279 104.195 37.0816 104.316C37.7407 104.449 38.4072 104.554 39.0752 104.649C40.4122 104.835 41.7551 104.995 43.104 105.129H43.0772C44.5442 105.155 46.0126 105.147 47.4691 105.022C48.9256 104.897 50.3821 104.702 51.7389 104.221C52.0719 104.102 52.3936 103.949 52.7 103.765C52.9868 103.608 53.2292 103.37 53.4022 103.078C53.4678 102.953 53.4939 102.808 53.4766 102.665C53.4508 102.51 53.3866 102.365 53.2906 102.246C53.0654 101.97 52.7899 101.748 52.4813 101.593C51.8269 101.257 51.1325 101.019 50.4178 100.888C50.0577 100.813 49.6932 100.755 49.3273 100.712C48.9613 100.669 48.5938 100.634 48.2248 100.611C48.5938 100.592 48.9687 100.582 49.3362 100.587C49.7037 100.592 50.0801 100.619 50.449 100.661C51.2015 100.735 51.9401 100.925 52.642 101.226C53.0129 101.388 53.3483 101.631 53.6268 101.94C53.7807 102.118 53.8884 102.336 53.9393 102.572C53.9859 102.824 53.9562 103.085 53.8545 103.317C53.6536 103.717 53.3534 104.05 52.9871 104.277C52.6567 104.496 52.3081 104.681 51.9457 104.83C51.2357 105.114 50.5032 105.328 49.7572 105.47C49.0133 105.617 48.2695 105.725 47.5256 105.79C46.0412 105.922 44.5513 105.967 43.0624 105.926H43.0356C42.3587 105.851 41.6817 105.778 41.0048 105.689C40.3279 105.601 39.6524 105.509 38.9785 105.393C38.3045 105.278 37.6291 105.153 36.9581 104.999C36.6219 104.923 36.2872 104.839 35.9539 104.74C35.6206 104.641 35.2874 104.535 34.9571 104.402C34.6111 104.274 34.2832 104.094 33.9826 103.869L33.8651 103.765C33.8279 103.727 33.7907 103.682 33.7535 103.64C33.7176 103.589 33.6844 103.535 33.6538 103.48C33.6246 103.417 33.6017 103.351 33.5854 103.283C33.5551 103.141 33.566 102.993 33.6166 102.857C33.6405 102.799 33.6684 102.743 33.7 102.689C33.7314 102.642 33.7652 102.597 33.8011 102.553C33.9326 102.405 34.0829 102.278 34.2475 102.175C34.4015 102.079 34.5604 101.992 34.7235 101.914C35.0403 101.763 35.3652 101.633 35.6965 101.524C36.3526 101.306 37.0161 101.128 37.6827 100.981C38.3492 100.834 39.0291 100.704 39.703 100.606Z" fill="white"/>
<path d="M26.0392 102.476C26.1328 102.882 26.317 103.261 26.5774 103.582C26.8245 103.908 27.11 104.202 27.4275 104.456C28.0635 104.964 28.7641 105.381 29.5099 105.695C30.253 106.02 31.019 106.287 31.8014 106.494C32.1914 106.602 32.5814 106.69 32.9807 106.785L33.5766 106.906C33.7747 106.948 33.9743 106.984 34.174 107.016C35.7753 107.282 37.3896 107.459 39.0096 107.545C40.633 107.636 42.2599 107.673 43.8905 107.657C45.5211 107.657 47.1486 107.606 48.773 107.505C50.3973 107.404 52.0149 107.239 53.6258 107.011C54.4291 106.893 55.2278 106.743 56.0217 106.57C56.8131 106.4 57.5943 106.184 58.3616 105.923C59.1315 105.679 59.866 105.33 60.5454 104.886C60.8699 104.654 61.1865 104.378 61.3394 104.01C61.3751 103.918 61.3956 103.821 61.4002 103.723C61.4024 103.623 61.3838 103.524 61.3456 103.432C61.261 103.243 61.1285 103.08 60.9619 102.962C61.1433 103.067 61.294 103.22 61.3987 103.404C61.4504 103.503 61.4812 103.612 61.4891 103.724C61.4942 103.836 61.481 103.948 61.4501 104.055C61.3129 104.48 60.9946 104.798 60.6702 105.068C60.3413 105.332 59.9887 105.564 59.6173 105.76C59.25 105.958 58.8731 106.137 58.4879 106.295C56.9427 106.9 55.3435 107.347 53.7131 107.632C52.903 107.786 52.0887 107.913 51.2703 108.012C50.4529 108.114 49.6325 108.197 48.8135 108.264C47.171 108.392 45.5268 108.447 43.8843 108.461C43.0607 108.461 42.2417 108.461 41.4181 108.426C41.0063 108.413 40.596 108.403 40.1842 108.378C39.7724 108.352 39.3622 108.343 38.9519 108.303C37.3049 108.186 35.6668 107.962 34.0476 107.632C33.2362 107.463 32.4343 107.25 31.6454 106.992C30.8527 106.74 30.0803 106.425 29.3352 106.049C29.1512 105.949 28.964 105.858 28.7862 105.744L28.5179 105.584C28.4289 105.528 28.3432 105.469 28.2558 105.41C27.9056 105.179 27.5766 104.916 27.2731 104.624C26.9657 104.336 26.6948 104.009 26.4666 103.652C26.2385 103.299 26.0923 102.896 26.0392 102.476Z" fill="white"/>
<path d="M38.6088 102.791C38.3009 102.729 38.0157 102.612 37.7763 102.448C37.711 102.397 37.6664 102.331 37.6482 102.26C37.6405 102.182 37.6718 102.104 37.7357 102.042C37.8506 101.944 37.9919 101.866 38.1496 101.816C38.7364 101.633 39.3505 101.509 39.9771 101.448C41.2078 101.307 42.4492 101.23 43.693 101.219C44.9413 101.199 46.1891 101.276 47.4183 101.448C47.7272 101.495 48.0327 101.554 48.3336 101.626C48.6418 101.697 48.9373 101.798 49.213 101.927C49.2839 101.963 49.3503 102.004 49.4114 102.05C49.4807 102.101 49.5313 102.166 49.5582 102.237C49.571 102.276 49.572 102.317 49.5612 102.356C49.5503 102.396 49.5279 102.432 49.4957 102.464C49.4403 102.515 49.3723 102.556 49.2958 102.586C49.0113 102.693 48.7052 102.76 48.3914 102.784C48.5398 102.749 48.6851 102.71 48.8272 102.661C48.9682 102.62 49.1021 102.565 49.2255 102.497C49.2811 102.467 49.3288 102.428 49.3661 102.384C49.3814 102.368 49.3911 102.348 49.3944 102.328C49.3976 102.308 49.3943 102.287 49.3848 102.268C49.3178 102.18 49.2165 102.11 49.0958 102.071C48.8276 101.969 48.5442 101.894 48.2524 101.848C47.9587 101.795 47.6588 101.752 47.3574 101.725C46.7545 101.664 46.1453 101.62 45.5346 101.602C44.9238 101.585 44.31 101.572 43.6977 101.58C43.0854 101.589 42.4715 101.6 41.8577 101.625C41.2438 101.649 40.6315 101.682 40.0224 101.726C39.4183 101.758 38.8204 101.84 38.2386 101.971C38.1042 102.002 37.9796 102.054 37.8731 102.126C37.8328 102.156 37.8083 102.196 37.8044 102.24C37.8118 102.288 37.8361 102.335 37.8747 102.373C37.9696 102.463 38.0825 102.541 38.2089 102.602C38.3365 102.672 38.4701 102.735 38.6088 102.791Z" fill="white"/>
<path d="M64.5972 50.7638C64.5759 50.6457 64.569 50.5251 64.5833 50.4059C64.6534 49.8217 64.7911 49.3366 65.0415 49.0224C65.1559 48.8788 65.2852 48.7447 65.3886 48.5928C65.6319 48.2357 66.202 47.4924 67.3007 46.5042C68.1219 45.5772 67.9386 44.8057 67.3757 43.8808C67.3268 43.8004 67.2649 43.7286 67.1943 43.6667C66.7672 43.2919 66.7444 42.6328 67.1443 42.2291L86.6491 22.5407C87.1361 22.0492 87.1361 21.2551 86.6492 20.7636L82.9869 17.0664C82.4954 16.5703 81.6955 16.5713 81.2052 17.0686L62.0615 36.4908C61.5237 37.0364 60.6227 36.9619 59.9868 36.5359C59.6282 36.2956 59.2046 36.1042 58.7592 36.0964C58.571 36.0932 58.3713 36.0973 58.1966 36.1676C57.9881 36.2515 57.6577 36.4592 57.1894 36.962C56.5784 37.6182 55.9939 38.1683 55.6857 38.4503C55.5384 38.585 55.4121 38.753 55.2466 38.8644C54.9407 39.0701 54.2156 39.3571 52.5347 39.3925C52.4688 39.3939 52.4012 39.3895 52.336 39.3804C51.4555 39.2584 50.5516 39.2005 49.632 39.2066C48.5924 39.2135 48.1559 40.4503 48.8879 41.1915L62.8441 55.3223C63.5568 56.044 64.763 55.6592 64.8206 54.6446C64.8959 53.32 64.8233 52.0184 64.5972 50.7638Z" fill="#975815"/>
<path d="M63.292 61.2168C63.4763 60.7637 63.3618 60.2469 63.0186 59.8994L44.0365 40.6798C43.7115 40.3507 43.232 40.2249 42.7935 40.3696C41.4544 40.8116 40.1196 41.3793 38.8099 42.0722C38.0909 42.4526 37.9722 43.4181 38.5444 43.9975L59.4676 65.1825C60.0154 65.7372 60.9305 65.6637 61.3453 65.0029C62.119 63.77 62.7696 62.5009 63.292 61.2168Z" fill="#975815"/>
<path d="M57.7324 67.826C58.2016 68.3011 58.2212 69.0638 57.7537 69.5406C57.0337 70.275 56.262 70.9812 55.4401 71.653C55.2933 71.773 55.1457 71.8913 54.9974 72.0077C54.5104 72.39 53.8184 72.3309 53.3831 71.8902L31.335 49.5662C30.876 49.1014 30.8456 48.359 31.2884 47.8786C32.1726 46.9195 33.142 46.0036 34.1935 45.1441C34.5537 44.8497 35.0761 44.8862 35.4031 45.2173L57.7324 67.826Z" fill="#975815"/>
<path d="M27.8307 52.5523C28.2304 51.8632 29.1681 51.7725 29.7273 52.3387L50.3218 73.1909C50.9053 73.7817 50.7681 74.7689 50.0224 75.1318C48.7751 75.7389 47.509 76.2339 46.2418 76.6165C45.8106 76.7467 45.3458 76.6184 45.0287 76.2974L26.4028 57.4384C26.068 57.0994 25.95 56.5984 26.1179 56.1518C26.5753 54.9355 27.1476 53.7297 27.8307 52.5523Z" fill="#975815"/>
<path d="M24.7861 62.9076C24.8008 61.8722 26.0252 61.4565 26.7515 62.1918L40.002 75.6082C40.7469 76.3624 40.2803 77.6154 39.2231 77.5803C34.6625 77.429 30.5533 75.669 27.8363 72.279C25.7195 69.638 24.7369 66.3684 24.7861 62.9076Z" fill="#975815"/>
<path d="M31.554 75.7649C26.6165 73.649 25.1032 68.4407 24.9637 66.1011C24.6847 63.7275 24.5243 58.2683 26.1144 55.4201C28.1019 51.8597 28.1397 49.8387 33.5286 45.776C38.9176 45.776 26.1144 55.4201 36.7845 55.4201C47.4546 55.4201 39.8181 67.0166 48.2914 62.5348C55.0701 58.9493 59.5375 63.1132 61.4902 66.1011C60.27 70.7618 54.7772 73.5269 51.7435 75.5614C48.7099 77.5959 49.6513 78.2062 49.0237 78.4097C48.396 78.6131 47.9776 81.1562 48.0822 81.4614C48.1868 81.7666 48.9191 83.9028 49.0237 84.3097C49.1283 84.7166 49.5467 85.7338 48.2914 86.4459C44.9439 88.2769 44.3163 85.6321 44.2117 85.0217C44.1071 84.4114 44.5255 82.6821 45.1532 81.8683C45.7808 81.0545 45.2578 80.5459 45.0486 80.139C44.8812 79.8135 44.4209 80.0034 44.2117 80.139C43.8769 80.2204 42.9564 81.5292 42.538 82.1735C41.9103 82.2752 42.3287 83.3942 43.1656 84.7166C44.0025 86.039 44.5255 88.0735 44.1071 89.8028C43.6886 91.5321 42.5379 92.651 39.8181 92.3459C37.6423 92.1017 36.8891 90.1418 36.7845 89.1924C36.645 88.243 36.6799 86.0186 37.9352 84.7166C39.1905 83.4145 38.4582 81.8005 37.9352 81.1562C37.3424 80.1051 35.2363 77.5552 31.554 75.7649Z" fill="#FFB300"/>
<path d="M27.735 68.3872C27.735 68.3872 27.4488 67.6215 27.735 67.3447C28.0213 67.0679 28.2974 67.1427 28.5735 67.8659C28.8497 68.5892 30.2747 71.4438 31.8832 72.1347C33.4916 72.8257 36.9847 75.2217 38.3634 77.8945C38.8693 78.9531 38.3634 78.7692 38.3634 78.7692C38.3634 78.7692 38.317 79.0804 37.674 78.4884C37.031 77.8965 35.4226 75.8621 33.3546 74.7611C31.2866 73.66 30.182 73.1449 29.3556 71.767C28.5292 70.3892 28.2772 70.0741 27.735 68.3872Z" fill="white"/>
<path d="M38.2256 86.7881C38.2256 86.7881 39.3907 85.8923 38.9071 86.8049C38.9071 86.8049 38.5644 89.0821 39.3698 90.1584C40.26 91.4114 39.5626 91.2176 39.3451 91.1736C39.1277 91.1297 36.02 89.2838 38.2256 86.7881Z" fill="white"/>
<path d="M45.2015 84.2217C45.2015 84.2217 46.2568 82.5486 46.0819 83.6182C45.9071 84.6878 46.0819 85.4309 46.5659 85.9807C47.0499 86.5306 46.4337 86.4468 46.1246 86.3072C45.8156 86.1676 45.0266 85.708 45.2015 84.2217Z" fill="white"/>
</svg>
